# Blender v2.76 (sub 0) OBJ File: ''
# www.blender.org
mtllib chair1.mtl
o Cube.001
v -0.361243 0.718758 0.354593
v -0.361243 0.718758 0.408046
v -0.408046 0.718758 0.408046
v -0.408046 0.718758 0.354593
v 0.367320 0.645391 -0.408045
v 0.367320 0.645391 -0.352113
v 0.367320 0.645391 -0.352113
v 0.367320 0.645391 -0.408045
v 0.408046 0.718758 0.354593
v 0.408045 0.645391 0.354593
v 0.408045 0.645391 0.408046
v 0.408046 0.718758 0.408046
v -0.361243 0.645391 0.408046
v -0.408046 0.645391 0.408046
v -0.408046 0.718758 -0.352113
v -0.408046 0.645391 -0.352113
v -0.408046 0.645391 -0.408046
v -0.408046 0.718758 -0.408046
v -0.361243 0.645391 -0.408046
v -0.361243 0.718758 -0.408046
v -0.408046 0.645391 0.354593
v 0.408046 0.718758 -0.352113
v 0.408046 0.645391 -0.352113
v -0.361243 0.645391 -0.352113
v -0.361243 0.645391 0.354593
v -0.361243 0.718758 -0.352113
v 0.367319 0.718758 -0.352113
v 0.367319 1.249725 -0.352113
v 0.408046 1.249725 -0.352113
v -0.361243 0.645391 0.354593
v -0.361243 0.645391 0.408046
v 0.408046 0.718758 -0.408046
v 0.408046 0.645391 -0.408045
v -0.408046 0.645391 0.354593
v -0.408046 1.249725 -0.408046
v -0.408046 1.249725 -0.352113
v 0.367319 0.718758 0.354593
v 0.367319 0.645391 0.354593
v 0.367319 0.718758 -0.408046
v 0.367319 0.645391 0.408046
v 0.367319 0.718758 0.408046
v 0.367319 0.645391 0.408046
v 0.367319 0.645391 0.354593
v -0.361243 1.249725 -0.352113
v -0.408046 0.645391 -0.352113
v -0.361243 0.645391 -0.352113
v -0.361243 0.162006 -0.352113
v -0.408046 0.162006 -0.352113
v 0.408045 0.645391 0.354593
v 0.367319 0.162006 0.354593
v 0.408045 0.162006 0.354593
v -0.408046 0.162006 0.354593
v -0.361243 0.162006 0.354593
v -0.408046 0.645391 0.408046
v -0.408046 0.162006 0.408046
v -0.361243 0.645391 -0.408046
v 0.408046 0.645391 -0.408045
v 0.408045 0.645391 0.408046
v 0.408046 0.645391 -0.352113
v -0.408046 0.645391 -0.408046
v -0.408046 0.162006 -0.408046
v -0.408046 0.029718 -0.352113
v -0.408046 0.029718 -0.408046
v 0.367320 0.162006 -0.408045
v 0.367320 0.162006 -0.352113
v 0.367320 0.029718 -0.352113
v 0.367320 0.029718 -0.408045
v -0.361243 0.162006 0.408046
v -0.361243 0.029718 0.408046
v -0.408046 0.029718 0.408046
v 0.367319 0.162006 0.408046
v 0.408045 0.162006 0.408046
v 0.408045 0.029718 0.408046
v 0.367319 0.029718 0.408046
v 0.408046 0.162006 -0.408045
v 0.408046 0.162006 -0.352113
v -0.361243 0.162006 -0.408046
v -0.361243 0.029718 0.354593
v -0.408046 0.029718 0.354593
v -0.361243 0.029718 -0.408046
v -0.361243 0.029718 -0.352113
v 0.408046 0.029718 -0.408045
v 0.408046 0.029718 -0.352113
v 0.408045 0.029718 0.354593
v 0.367319 0.029718 0.354593
v -0.408046 1.632193 -0.352113
v -0.361243 1.632193 -0.352113
v 0.367319 1.632193 -0.352113
v 0.408046 1.632193 -0.352113
v -0.361243 1.249725 -0.408046
v 0.367319 1.249725 -0.408045
v 0.367319 1.632193 -0.408045
v -0.361243 1.632193 -0.408046
v 0.408046 1.249725 -0.408045
v -0.408046 1.632193 -0.408046
v -0.361243 1.661486 -0.408046
v -0.408046 1.661486 -0.408046
v 0.408046 1.632193 -0.408045
v 0.408046 1.661486 -0.352113
v 0.408046 1.661486 -0.408045
v 0.367319 1.661486 -0.408045
v 0.408046 1.696889 -0.408045
v 0.367319 1.696889 -0.408045
v 0.367319 1.661486 -0.352113
v 0.367319 1.696889 -0.352113
v -0.361243 1.661486 -0.352113
v -0.408046 1.661486 -0.352113
v -0.361243 1.696889 -0.408046
v -0.361243 1.696889 -0.352113
v -0.408046 1.696889 -0.352113
v -0.408046 1.696889 -0.408046
v 0.408046 1.696889 -0.352113
vt 0.815729 0.205320
vt 0.826709 0.205320
vt 0.826709 0.209322
vt 0.815729 0.209322
vt 0.000000 0.000000
vt 0.178620 0.930226
vt 0.178620 1.000000
vt 0.167640 1.000000
vt 0.167640 0.930226
vt 0.828585 0.069774
vt 0.828585 0.000000
vt 0.838199 0.000000
vt 0.838199 0.069774
vt 0.011490 0.930226
vt 0.011490 1.000000
vt 0.000000 1.000000
vt 0.000000 0.930226
vt 0.493305 1.000000
vt 0.493305 0.930226
vt 0.502919 0.930226
vt 0.502919 1.000000
vt 0.156660 1.000000
vt 0.156660 0.930226
vt 0.323790 0.930226
vt 0.323790 1.000000
vt 0.826709 0.135546
vt 0.826709 0.139548
vt 0.681540 0.139548
vt 0.681540 0.135546
vt 0.670559 0.205320
vt 0.670559 0.209322
vt 0.502919 0.000000
vt 0.511285 0.000000
vt 0.511285 0.504962
vt 0.502920 0.504962
vt 0.335280 0.930226
vt 0.335280 1.000000
vt 0.000000 0.425264
vt 0.011490 0.425264
vt 0.670559 0.139548
vt 0.815729 0.139548
vt 0.815729 0.143030
vt 0.670559 0.143030
vt 0.826709 0.069774
vt 0.826709 0.073256
vt 0.681539 0.073256
vt 0.681539 0.069774
vt 0.343646 0.930226
vt 0.343646 1.000000
vt 0.670559 0.069774
vt 0.670559 0.000000
vt 0.678925 0.000000
vt 0.678925 0.069774
vt 0.826709 0.143030
vt 0.838199 0.073256
vt 0.838199 0.135546
vt 0.660945 0.000000
vt 0.660945 0.504962
vt 0.670559 0.135546
vt 0.670559 0.073256
vt 0.956922 0.585519
vt 0.947308 0.585519
vt 0.947308 0.125809
vt 0.956922 0.125809
vt 0.991634 0.585519
vt 0.983268 0.585519
vt 0.983268 0.125809
vt 0.991634 0.125809
vt 0.966536 0.585520
vt 0.966536 0.125809
vt 0.906119 0.585520
vt 0.895139 0.585520
vt 0.895139 0.125809
vt 0.906119 0.125809
vt 0.849689 0.125809
vt 0.838199 0.125809
vt 0.849689 0.000000
vt 0.861179 0.459711
vt 0.872668 0.459711
vt 0.872668 0.585519
vt 0.861179 0.585519
vt 0.937694 0.125809
vt 0.937694 0.000000
vt 0.947308 0.000000
vt 0.974902 0.125809
vt 0.966536 0.000000
vt 0.974902 0.000000
vt 0.861178 0.000000
vt 0.849689 0.459711
vt 0.884158 0.585519
vt 0.872668 0.125809
vt 0.884158 0.125809
vt 1.000000 0.585520
vt 1.000000 0.125809
vt 0.906119 0.000000
vt 0.917099 0.000000
vt 0.917099 0.459711
vt 0.906119 0.459711
vt 0.928079 0.585519
vt 0.917099 0.585520
vt 0.917099 0.125809
vt 0.928079 0.125809
vt 0.974902 0.585519
vt 0.928079 0.000000
vt 0.937694 0.459711
vt 0.928080 0.459711
vt 0.937694 0.585519
vt 0.872668 0.000000
vt 0.849689 0.585519
vt 0.838199 0.585519
vt 0.680173 0.285747
vt 0.670559 0.285747
vt 0.670559 0.281177
vt 0.680173 0.281177
vt 0.670559 0.276395
vt 0.680173 0.276395
vt 0.688539 0.276395
vt 0.680173 0.271612
vt 0.688539 0.271612
vt 0.688539 0.281177
vt 0.688539 0.285747
vt 0.884158 0.000000
vt 0.895138 0.000000
vt 0.956922 0.000000
vt 0.983268 0.000000
vt 0.991634 0.000000
vt 1.000000 0.000000
vt 0.670559 0.504962
vt 0.670559 0.868699
vt 0.660945 0.868699
vt 0.511285 0.868699
vt 0.502920 0.868699
vt 0.493305 0.425264
vt 0.343646 0.425264
vt 0.343646 0.061527
vt 0.493305 0.061527
vt 0.502919 0.425264
vt 0.335280 0.425264
vt 0.323790 0.425264
vt 0.502919 0.061527
vt 0.493305 0.033669
vt 0.502919 0.033669
vt 0.335279 0.061527
vt 0.323790 0.061527
vt 0.323790 0.033669
vt 0.335279 0.033669
vt 0.682049 0.209322
vt 0.682049 0.271612
vt 0.670559 0.271612
vt 0.000000 0.061527
vt 0.011490 0.061527
vt 0.343646 0.033669
vt 0.335280 0.000000
vt 0.343646 0.000000
vt 0.682049 0.237180
vt 0.693538 0.237180
vt 0.693538 0.270849
vt 0.682049 0.270849
vt 0.705028 0.270849
vt 0.693539 0.242991
vt 0.705028 0.242991
vt 0.511285 0.896557
vt 0.502920 0.896557
vt 0.670559 0.896557
vt 0.660945 0.896557
vt 0.000000 0.033669
vt 0.011490 0.033669
vt 0.693538 0.209322
vt 0.323790 0.000000
vt 0.493305 0.000000
vt 0.705028 0.209322
vt 0.511286 0.930226
vt 0.670559 0.930226
vt 0.660945 0.930226
vt 0.011490 0.000000
vn 0.000000 -1.000000 -0.000000
vn 0.000000 0.000000 0.000000
vn -1.000000 0.000000 -0.000000
vn 0.000000 -0.000000 -1.000000
vn 0.000100 0.000000 -1.000000
vn 1.000000 -0.000000 0.000000
vn -0.000000 0.000000 1.000000
vn 0.000000 1.000000 0.000000
usemtl Material.001
s 1
f 1/1/1 2/2/1 3/3/1 4/4/1
f 5/5/2 6/5/2 7/5/2 8/5/2
f 9/6/3 10/7/3 11/8/3 12/9/3
f 2/10/4 13/11/4 14/12/5 3/13/4
f 15/14/6 16/15/6 17/16/6 18/17/6
f 19/18/7 20/19/7 18/20/7 17/21/2
f 3/9/6 14/8/6 21/22/6 4/23/6
f 22/24/3 23/25/3 10/7/3 9/6/3
f 24/26/8 16/27/8 21/28/8 25/29/8
f 26/30/1 1/1/1 4/4/1 15/31/1
f 22/32/4 27/33/4 28/34/4 29/35/4
f 13/5/2 25/5/2 30/5/2 31/5/2
f 32/36/3 33/37/3 23/25/3 22/24/3
f 4/23/6 21/22/6 16/15/6 15/14/6
f 25/5/7 21/5/2 34/5/2 30/5/7
f 15/14/6 18/17/6 35/38/6 36/39/6
f 22/40/1 9/41/1 37/42/1 27/43/1
f 23/44/8 6/45/8 38/46/8 10/47/8
f 33/37/2 32/36/7 39/48/7 5/49/2
f 12/50/4 11/51/4 40/52/4 41/53/4
f 38/5/2 40/5/2 42/5/2 43/5/2
f 9/41/1 12/27/1 41/54/1 37/42/1
f 5/55/8 19/56/8 24/26/8 6/45/8
f 27/33/4 26/57/4 44/58/4 28/34/4
f 27/43/1 37/42/1 1/1/1 26/30/1
f 6/45/8 24/26/8 25/29/8 38/46/8
f 5/49/2 39/48/7 20/19/7 19/18/7
f 41/53/4 40/52/4 13/11/4 2/10/4
f 38/46/8 25/29/8 13/59/8 40/60/8
f 37/42/1 41/54/1 2/2/1 1/1/1
f 45/61/4 46/62/4 47/63/4 48/64/4
f 49/65/2 43/66/2 50/67/7 51/68/7
f 30/69/7 34/61/2 52/64/7 53/70/7
f 34/71/6 54/72/6 55/73/6 52/74/6
f 16/5/2 24/5/7 46/5/7 45/5/2
f 24/5/2 19/5/2 56/5/2 46/5/2
f 21/5/2 14/5/2 54/5/2 34/5/2
f 33/5/2 5/5/2 8/5/2 57/5/2
f 11/5/2 10/5/2 49/5/2 58/5/2
f 23/5/2 33/5/2 57/5/2 59/5/2
f 40/5/2 11/5/2 58/5/2 42/5/2
f 19/5/7 17/5/2 60/5/2 56/5/7
f 14/5/5 13/5/4 31/5/2 54/5/2
f 6/5/2 23/5/2 59/5/2 7/5/2
f 10/5/2 38/5/2 43/5/2 49/5/2
f 17/5/2 16/5/2 45/5/2 60/5/2
f 61/75/6 48/76/6 62/12/6 63/77/6
f 64/78/6 65/79/6 66/80/6 67/81/6
f 55/63/4 68/82/4 69/83/4 70/84/4
f 71/85/4 72/70/4 73/86/4 74/87/4
f 59/77/3 57/88/3 75/78/3 76/89/3
f 46/90/3 56/80/3 77/91/3 47/92/3
f 7/93/4 59/65/4 76/68/4 65/94/4
f 58/95/3 49/96/3 51/97/3 72/98/3
f 31/99/3 30/100/3 53/101/3 68/102/3
f 57/66/2 8/103/2 64/85/7 75/67/7
f 56/104/7 60/83/2 61/105/7 77/106/7
f 42/103/4 58/69/4 72/70/4 71/85/4
f 54/62/2 31/107/2 68/82/4 55/63/4
f 8/88/6 7/108/6 65/79/6 64/78/6
f 60/109/6 45/110/6 48/76/6 61/75/6
f 43/72/6 42/90/6 71/92/6 50/73/6
f 78/111/8 79/112/8 70/113/8 69/114/8
f 80/114/8 63/113/8 62/115/8 81/116/8
f 82/117/8 67/116/8 66/118/8 83/119/8
f 84/114/8 85/120/8 74/121/8 73/111/8
f 50/73/6 71/92/6 74/122/6 85/123/6
f 52/74/6 55/73/6 70/123/6 79/95/6
f 53/70/7 52/64/7 79/124/7 78/86/7
f 51/68/7 50/67/7 85/125/7 84/126/7
f 48/64/4 47/63/4 81/84/4 62/124/4
f 76/89/3 75/78/3 82/81/3 83/109/3
f 47/92/3 77/91/3 80/108/3 81/122/3
f 65/94/4 76/68/4 83/126/4 66/127/4
f 72/98/3 51/97/3 84/100/3 73/71/3
f 68/102/3 53/101/3 78/96/3 69/104/3
f 75/67/7 64/85/7 67/87/7 82/125/7
f 77/106/7 61/105/7 63/107/7 80/99/7
f 44/58/4 36/128/4 86/129/4 87/130/4
f 29/35/4 28/34/4 88/131/4 89/132/4
f 90/133/7 91/134/7 92/135/7 93/136/7
f 18/20/7 20/19/7 90/133/7 35/137/7
f 39/48/7 32/36/7 94/138/7 91/134/7
f 26/57/4 15/51/4 36/128/4 44/58/4
f 20/19/7 39/48/7 91/134/7 90/133/7
f 32/36/3 22/24/3 29/139/3 94/138/3
f 95/140/7 93/136/7 96/141/7 97/142/7
f 98/143/3 89/144/3 99/145/3 100/146/3
f 92/31/1 88/147/1 87/148/1 93/149/1
f 36/39/6 35/38/6 95/150/6 86/151/6
f 28/34/4 44/58/4 87/130/4 88/131/4
f 91/134/7 94/138/7 98/143/7 92/135/7
f 94/138/3 29/139/3 89/144/3 98/143/3
f 35/137/7 90/133/7 93/136/7 95/140/7
f 101/152/7 100/146/7 102/153/7 103/154/7
f 104/155/6 101/156/6 103/157/6 105/158/6
f 93/159/3 87/157/3 106/160/3 96/161/3
f 89/132/4 88/131/4 104/162/4 99/163/4
f 87/130/4 86/129/4 107/164/4 106/165/4
f 86/151/6 95/150/6 97/166/6 107/167/6
f 88/147/6 92/168/6 101/156/6 104/155/6
f 92/135/7 98/143/7 100/146/7 101/152/7
f 108/118/1 109/116/1 110/115/1 111/149/1
f 102/117/1 112/120/1 105/114/1 103/116/1
f 100/146/3 99/145/3 112/169/3 102/153/3
f 97/142/7 96/141/7 108/170/7 111/32/7
f 96/161/3 106/160/3 109/168/3 108/171/3
f 99/163/4 104/162/4 105/172/4 112/20/4
f 106/165/4 107/164/4 110/173/4 109/174/4
f 107/167/6 97/166/6 111/5/6 110/175/6
